<?xml version="1.0" encoding="UTF-8" standalone="no"?>
<!DOCTYPE svg PUBLIC "-//W3C//DTD SVG 1.1//EN"
 "http://www.w3.org/Graphics/SVG/1.1/DTD/svg11.dtd">
<!-- Generated by graphviz version 2.48.0 (0)
 -->
<!-- Title: snakemake_dag Pages: 1 -->
<svg width="1911pt" height="548pt"
 viewBox="0.00 0.00 1911.33 548.00" xmlns="http://www.w3.org/2000/svg" xmlns:xlink="http://www.w3.org/1999/xlink">
<g id="graph0" class="graph" transform="scale(1 1) rotate(0) translate(4 544)">
<title>snakemake_dag</title>
<polygon fill="white" stroke="transparent" points="-4,4 -4,-544 1907.33,-544 1907.33,4 -4,4"/>
<!-- 0 -->
<g id="node1" class="node">
<title>0</title>
<path fill="none" stroke="#567bd8" stroke-width="2" d="M763.5,-36C763.5,-36 668.5,-36 668.5,-36 662.5,-36 656.5,-30 656.5,-24 656.5,-24 656.5,-12 656.5,-12 656.5,-6 662.5,0 668.5,0 668.5,0 763.5,0 763.5,0 769.5,0 775.5,-6 775.5,-12 775.5,-12 775.5,-24 775.5,-24 775.5,-30 769.5,-36 763.5,-36"/>
<text text-anchor="middle" x="716" y="-15.5" font-family="sans" font-size="10.00">run_after_checkpoint</text>
</g>
<!-- 1 -->
<g id="node2" class="node">
<title>1</title>
<path fill="none" stroke="#ced856" stroke-width="2" d="M742,-108C742,-108 690,-108 690,-108 684,-108 678,-102 678,-96 678,-96 678,-84 678,-84 678,-78 684,-72 690,-72 690,-72 742,-72 742,-72 748,-72 754,-78 754,-84 754,-84 754,-96 754,-96 754,-102 748,-108 742,-108"/>
<text text-anchor="middle" x="716" y="-87.5" font-family="sans" font-size="10.00">analizeTime</text>
</g>
<!-- 1&#45;&gt;0 -->
<g id="edge1" class="edge">
<title>1&#45;&gt;0</title>
<path fill="none" stroke="grey" stroke-width="2" d="M716,-71.7C716,-63.98 716,-54.71 716,-46.11"/>
<polygon fill="grey" stroke="grey" stroke-width="2" points="719.5,-46.1 716,-36.1 712.5,-46.1 719.5,-46.1"/>
</g>
<!-- 2 -->
<g id="node3" class="node">
<title>2</title>
<path fill="none" stroke="#d85656" stroke-width="2" stroke-dasharray="5,2" d="M92.5,-180C92.5,-180 25.5,-180 25.5,-180 19.5,-180 13.5,-174 13.5,-168 13.5,-168 13.5,-156 13.5,-156 13.5,-150 19.5,-144 25.5,-144 25.5,-144 92.5,-144 92.5,-144 98.5,-144 104.5,-150 104.5,-156 104.5,-156 104.5,-168 104.5,-168 104.5,-174 98.5,-180 92.5,-180"/>
<text text-anchor="middle" x="59" y="-165" font-family="sans" font-size="10.00">extractVerbose</text>
<text text-anchor="middle" x="59" y="-154" font-family="sans" font-size="10.00">file: pbwtNaive</text>
</g>
<!-- 2&#45;&gt;1 -->
<g id="edge2" class="edge">
<title>2&#45;&gt;1</title>
<path fill="none" stroke="grey" stroke-width="2" d="M104.61,-150.07C115.19,-147.81 126.45,-145.63 137,-144 332.6,-113.85 568.2,-98.79 667.81,-93.4"/>
<polygon fill="grey" stroke="grey" stroke-width="2" points="668.07,-96.89 677.87,-92.86 667.69,-89.9 668.07,-96.89"/>
</g>
<!-- 3 -->
<g id="node4" class="node">
<title>3</title>
<path fill="none" stroke="#568ad8" stroke-width="2" stroke-dasharray="5,2" d="M87.5,-252C87.5,-252 26.5,-252 26.5,-252 20.5,-252 14.5,-246 14.5,-240 14.5,-240 14.5,-228 14.5,-228 14.5,-222 20.5,-216 26.5,-216 26.5,-216 87.5,-216 87.5,-216 93.5,-216 99.5,-222 99.5,-228 99.5,-228 99.5,-240 99.5,-240 99.5,-246 93.5,-252 87.5,-252"/>
<text text-anchor="middle" x="57" y="-231.5" font-family="sans" font-size="10.00">runPbwtNaive</text>
</g>
<!-- 3&#45;&gt;2 -->
<g id="edge13" class="edge">
<title>3&#45;&gt;2</title>
<path fill="none" stroke="grey" stroke-width="2" d="M57.49,-215.7C57.71,-207.98 57.98,-198.71 58.23,-190.11"/>
<polygon fill="grey" stroke="grey" stroke-width="2" points="61.72,-190.2 58.51,-180.1 54.73,-190 61.72,-190.2"/>
</g>
<!-- 4 -->
<g id="node5" class="node">
<title>4</title>
<path fill="none" stroke="#61d856" stroke-width="2" stroke-dasharray="5,2" d="M208,-324C208,-324 122,-324 122,-324 116,-324 110,-318 110,-312 110,-312 110,-300 110,-300 110,-294 116,-288 122,-288 122,-288 208,-288 208,-288 214,-288 220,-294 220,-300 220,-300 220,-312 220,-312 220,-318 214,-324 208,-324"/>
<text text-anchor="middle" x="165" y="-303.5" font-family="sans" font-size="10.00">makeResultsFolder</text>
</g>
<!-- 4&#45;&gt;3 -->
<g id="edge14" class="edge">
<title>4&#45;&gt;3</title>
<path fill="none" stroke="grey" stroke-width="2" d="M138.58,-287.88C124.59,-278.81 107.22,-267.55 92.11,-257.76"/>
<polygon fill="grey" stroke="grey" stroke-width="2" points="93.82,-254.69 83.52,-252.19 90.01,-260.57 93.82,-254.69"/>
</g>
<!-- 10 -->
<g id="node11" class="node">
<title>10</title>
<path fill="none" stroke="#56d892" stroke-width="2" stroke-dasharray="5,2" d="M200.5,-252C200.5,-252 129.5,-252 129.5,-252 123.5,-252 117.5,-246 117.5,-240 117.5,-240 117.5,-228 117.5,-228 117.5,-222 123.5,-216 129.5,-216 129.5,-216 200.5,-216 200.5,-216 206.5,-216 212.5,-222 212.5,-228 212.5,-228 212.5,-240 212.5,-240 212.5,-246 206.5,-252 200.5,-252"/>
<text text-anchor="middle" x="165" y="-231.5" font-family="sans" font-size="10.00">runPbwtIndexed</text>
</g>
<!-- 4&#45;&gt;10 -->
<g id="edge20" class="edge">
<title>4&#45;&gt;10</title>
<path fill="none" stroke="grey" stroke-width="2" d="M165,-287.7C165,-279.98 165,-270.71 165,-262.11"/>
<polygon fill="grey" stroke="grey" stroke-width="2" points="168.5,-262.1 165,-252.1 161.5,-262.1 168.5,-262.1"/>
</g>
<!-- 12 -->
<g id="node13" class="node">
<title>12</title>
<path fill="none" stroke="#d8ac56" stroke-width="2" stroke-dasharray="5,2" d="M319,-252C319,-252 243,-252 243,-252 237,-252 231,-246 231,-240 231,-240 231,-228 231,-228 231,-222 237,-216 243,-216 243,-216 319,-216 319,-216 325,-216 331,-222 331,-228 331,-228 331,-240 331,-240 331,-246 325,-252 319,-252"/>
<text text-anchor="middle" x="281" y="-231.5" font-family="sans" font-size="10.00">runPbwtDynamic</text>
</g>
<!-- 4&#45;&gt;12 -->
<g id="edge23" class="edge">
<title>4&#45;&gt;12</title>
<path fill="none" stroke="grey" stroke-width="2" d="M193.38,-287.88C208.54,-278.72 227.41,-267.34 243.74,-257.48"/>
<polygon fill="grey" stroke="grey" stroke-width="2" points="245.76,-260.35 252.51,-252.19 242.14,-254.36 245.76,-260.35"/>
</g>
<!-- 5 -->
<g id="node6" class="node">
<title>5</title>
<path fill="none" stroke="#56d8b9" stroke-width="2" stroke-dasharray="5,2" d="M80,-324C80,-324 12,-324 12,-324 6,-324 0,-318 0,-312 0,-312 0,-300 0,-300 0,-294 6,-288 12,-288 12,-288 80,-288 80,-288 86,-288 92,-294 92,-300 92,-300 92,-312 92,-312 92,-318 86,-324 80,-324"/>
<text text-anchor="middle" x="46" y="-303.5" font-family="sans" font-size="10.00">makeInputPbwt</text>
</g>
<!-- 5&#45;&gt;3 -->
<g id="edge15" class="edge">
<title>5&#45;&gt;3</title>
<path fill="none" stroke="grey" stroke-width="2" d="M48.72,-287.7C49.93,-279.98 51.39,-270.71 52.74,-262.11"/>
<polygon fill="grey" stroke="grey" stroke-width="2" points="56.22,-262.53 54.31,-252.1 49.3,-261.44 56.22,-262.53"/>
</g>
<!-- 5&#45;&gt;10 -->
<g id="edge21" class="edge">
<title>5&#45;&gt;10</title>
<path fill="none" stroke="grey" stroke-width="2" d="M75.11,-287.88C90.67,-278.72 110.02,-267.34 126.78,-257.48"/>
<polygon fill="grey" stroke="grey" stroke-width="2" points="128.93,-260.28 135.78,-252.19 125.38,-254.24 128.93,-260.28"/>
</g>
<!-- 5&#45;&gt;12 -->
<g id="edge24" class="edge">
<title>5&#45;&gt;12</title>
<path fill="none" stroke="grey" stroke-width="2" d="M92.2,-290.67C95.18,-289.76 98.13,-288.87 101,-288 141.05,-275.91 186.22,-262.62 221.29,-252.36"/>
<polygon fill="grey" stroke="grey" stroke-width="2" points="222.28,-255.72 230.9,-249.56 220.32,-249 222.28,-255.72"/>
</g>
<!-- 6 -->
<g id="node7" class="node">
<title>6</title>
<path fill="none" stroke="#56d8a9" stroke-width="2" stroke-dasharray="5,2" d="M143,-396C143,-396 79,-396 79,-396 73,-396 67,-390 67,-384 67,-384 67,-372 67,-372 67,-366 73,-360 79,-360 79,-360 143,-360 143,-360 149,-360 155,-366 155,-372 155,-372 155,-384 155,-384 155,-390 149,-396 143,-396"/>
<text text-anchor="middle" x="111" y="-375.5" font-family="sans" font-size="10.00">downloadPbwt</text>
</g>
<!-- 6&#45;&gt;5 -->
<g id="edge16" class="edge">
<title>6&#45;&gt;5</title>
<path fill="none" stroke="grey" stroke-width="2" d="M94.93,-359.7C87.06,-351.22 77.44,-340.86 68.83,-331.58"/>
<polygon fill="grey" stroke="grey" stroke-width="2" points="71.25,-329.05 61.88,-324.1 66.12,-333.81 71.25,-329.05"/>
</g>
<!-- 7 -->
<g id="node8" class="node">
<title>7</title>
<path fill="none" stroke="#56c1d8" stroke-width="2" stroke-dasharray="5,2" d="M607,-468C607,-468 539,-468 539,-468 533,-468 527,-462 527,-456 527,-456 527,-444 527,-444 527,-438 533,-432 539,-432 539,-432 607,-432 607,-432 613,-432 619,-438 619,-444 619,-444 619,-456 619,-456 619,-462 613,-468 607,-468"/>
<text text-anchor="middle" x="573" y="-447.5" font-family="sans" font-size="10.00">downloadHtslib</text>
</g>
<!-- 7&#45;&gt;6 -->
<g id="edge17" class="edge">
<title>7&#45;&gt;6</title>
<path fill="none" stroke="grey" stroke-width="2" d="M526.59,-441.97C440.55,-428.93 256.74,-401.08 165.17,-387.21"/>
<polygon fill="grey" stroke="grey" stroke-width="2" points="165.42,-383.71 155.01,-385.67 164.37,-390.63 165.42,-383.71"/>
</g>
<!-- 8 -->
<g id="node9" class="node">
<title>8</title>
<path fill="none" stroke="#d89c56" stroke-width="2" stroke-dasharray="5,2" d="M675.5,-540C675.5,-540 582.5,-540 582.5,-540 576.5,-540 570.5,-534 570.5,-528 570.5,-528 570.5,-516 570.5,-516 570.5,-510 576.5,-504 582.5,-504 582.5,-504 675.5,-504 675.5,-504 681.5,-504 687.5,-510 687.5,-516 687.5,-516 687.5,-528 687.5,-528 687.5,-534 681.5,-540 675.5,-540"/>
<text text-anchor="middle" x="629" y="-519.5" font-family="sans" font-size="10.00">makeSoftwareFolder</text>
</g>
<!-- 8&#45;&gt;7 -->
<g id="edge18" class="edge">
<title>8&#45;&gt;7</title>
<path fill="none" stroke="grey" stroke-width="2" d="M615.16,-503.7C608.51,-495.39 600.42,-485.28 593.11,-476.14"/>
<polygon fill="grey" stroke="grey" stroke-width="2" points="595.66,-473.73 586.68,-468.1 590.2,-478.1 595.66,-473.73"/>
</g>
<!-- 15 -->
<g id="node16" class="node">
<title>15</title>
<path fill="none" stroke="#70d856" stroke-width="2" stroke-dasharray="5,2" d="M1041,-468C1041,-468 967,-468 967,-468 961,-468 955,-462 955,-456 955,-456 955,-444 955,-444 955,-438 961,-432 967,-432 967,-432 1041,-432 1041,-432 1047,-432 1053,-438 1053,-444 1053,-444 1053,-456 1053,-456 1053,-462 1047,-468 1041,-468"/>
<text text-anchor="middle" x="1004" y="-447.5" font-family="sans" font-size="10.00">downloadRlpbwt</text>
</g>
<!-- 8&#45;&gt;15 -->
<g id="edge29" class="edge">
<title>8&#45;&gt;15</title>
<path fill="none" stroke="grey" stroke-width="2" d="M687.59,-510.06C757.69,-496.98 874.36,-475.2 944.75,-462.06"/>
<polygon fill="grey" stroke="grey" stroke-width="2" points="945.59,-465.46 954.78,-460.19 944.31,-458.58 945.59,-465.46"/>
</g>
<!-- 9 -->
<g id="node10" class="node">
<title>9</title>
<path fill="none" stroke="#d85656" stroke-width="2" stroke-dasharray="5,2" d="M235.5,-180C235.5,-180 158.5,-180 158.5,-180 152.5,-180 146.5,-174 146.5,-168 146.5,-168 146.5,-156 146.5,-156 146.5,-150 152.5,-144 158.5,-144 158.5,-144 235.5,-144 235.5,-144 241.5,-144 247.5,-150 247.5,-156 247.5,-156 247.5,-168 247.5,-168 247.5,-174 241.5,-180 235.5,-180"/>
<text text-anchor="middle" x="197" y="-165" font-family="sans" font-size="10.00">extractVerbose</text>
<text text-anchor="middle" x="197" y="-154" font-family="sans" font-size="10.00">file: pbwtIndexed</text>
</g>
<!-- 9&#45;&gt;1 -->
<g id="edge3" class="edge">
<title>9&#45;&gt;1</title>
<path fill="none" stroke="grey" stroke-width="2" d="M247.59,-148.29C254.75,-146.72 262.04,-145.23 269,-144 413.09,-118.53 585.53,-101.97 667.77,-94.9"/>
<polygon fill="grey" stroke="grey" stroke-width="2" points="668.15,-98.39 677.81,-94.05 667.55,-91.41 668.15,-98.39"/>
</g>
<!-- 10&#45;&gt;9 -->
<g id="edge19" class="edge">
<title>10&#45;&gt;9</title>
<path fill="none" stroke="grey" stroke-width="2" d="M172.91,-215.7C176.55,-207.73 180.95,-198.1 184.99,-189.26"/>
<polygon fill="grey" stroke="grey" stroke-width="2" points="188.21,-190.65 189.18,-180.1 181.84,-187.74 188.21,-190.65"/>
</g>
<!-- 11 -->
<g id="node12" class="node">
<title>11</title>
<path fill="none" stroke="#d85656" stroke-width="2" stroke-dasharray="5,2" d="M372,-180C372,-180 290,-180 290,-180 284,-180 278,-174 278,-168 278,-168 278,-156 278,-156 278,-150 284,-144 290,-144 290,-144 372,-144 372,-144 378,-144 384,-150 384,-156 384,-156 384,-168 384,-168 384,-174 378,-180 372,-180"/>
<text text-anchor="middle" x="331" y="-165" font-family="sans" font-size="10.00">extractVerbose</text>
<text text-anchor="middle" x="331" y="-154" font-family="sans" font-size="10.00">file: pbwtDynamic</text>
</g>
<!-- 11&#45;&gt;1 -->
<g id="edge4" class="edge">
<title>11&#45;&gt;1</title>
<path fill="none" stroke="grey" stroke-width="2" d="M384.36,-147.23C389.3,-146.09 394.23,-144.99 399,-144 493.7,-124.28 605.5,-106.96 667.82,-97.84"/>
<polygon fill="grey" stroke="grey" stroke-width="2" points="668.37,-101.3 677.76,-96.39 667.36,-94.37 668.37,-101.3"/>
</g>
<!-- 12&#45;&gt;11 -->
<g id="edge22" class="edge">
<title>12&#45;&gt;11</title>
<path fill="none" stroke="grey" stroke-width="2" d="M293.36,-215.7C299.23,-207.47 306.37,-197.48 312.84,-188.42"/>
<polygon fill="grey" stroke="grey" stroke-width="2" points="315.82,-190.28 318.78,-180.1 310.12,-186.21 315.82,-190.28"/>
</g>
<!-- 13 -->
<g id="node14" class="node">
<title>13</title>
<path fill="none" stroke="#d85656" stroke-width="2" d="M627,-180C627,-180 553,-180 553,-180 547,-180 541,-174 541,-168 541,-168 541,-156 541,-156 541,-150 547,-144 553,-144 553,-144 627,-144 627,-144 633,-144 639,-150 639,-156 639,-156 639,-168 639,-168 639,-174 633,-180 627,-180"/>
<text text-anchor="middle" x="590" y="-165" font-family="sans" font-size="10.00">extractVerbose</text>
<text text-anchor="middle" x="590" y="-154" font-family="sans" font-size="10.00">file: rlpbwtNaive</text>
</g>
<!-- 13&#45;&gt;1 -->
<g id="edge5" class="edge">
<title>13&#45;&gt;1</title>
<path fill="none" stroke="grey" stroke-width="2" d="M620.82,-143.88C637.45,-134.64 658.16,-123.13 676.02,-113.21"/>
<polygon fill="grey" stroke="grey" stroke-width="2" points="678.02,-116.11 685.06,-108.19 674.62,-109.99 678.02,-116.11"/>
</g>
<!-- 14 -->
<g id="node15" class="node">
<title>14</title>
<path fill="none" stroke="#a7d856" stroke-width="2" d="M606.5,-252C606.5,-252 535.5,-252 535.5,-252 529.5,-252 523.5,-246 523.5,-240 523.5,-240 523.5,-228 523.5,-228 523.5,-222 529.5,-216 535.5,-216 535.5,-216 606.5,-216 606.5,-216 612.5,-216 618.5,-222 618.5,-228 618.5,-228 618.5,-240 618.5,-240 618.5,-246 612.5,-252 606.5,-252"/>
<text text-anchor="middle" x="571" y="-231.5" font-family="sans" font-size="10.00">runRlpbwtNaive</text>
</g>
<!-- 14&#45;&gt;13 -->
<g id="edge25" class="edge">
<title>14&#45;&gt;13</title>
<path fill="none" stroke="grey" stroke-width="2" d="M575.7,-215.7C577.81,-207.9 580.36,-198.51 582.72,-189.83"/>
<polygon fill="grey" stroke="grey" stroke-width="2" points="586.12,-190.67 585.36,-180.1 579.36,-188.84 586.12,-190.67"/>
</g>
<!-- 15&#45;&gt;14 -->
<g id="edge26" class="edge">
<title>15&#45;&gt;14</title>
<path fill="none" stroke="grey" stroke-width="2" d="M954.92,-446.04C854.08,-439.51 626.88,-422.3 554,-396 498.69,-376.04 471.07,-375.67 443,-324 435.36,-309.94 434.11,-301.3 443,-288 451.59,-275.14 483.85,-261.83 513.82,-251.76"/>
<polygon fill="grey" stroke="grey" stroke-width="2" points="515.03,-255.05 523.44,-248.61 512.85,-248.4 515.03,-255.05"/>
</g>
<!-- 16 -->
<g id="node17" class="node">
<title>16</title>
<path fill="none" stroke="#d8c356" stroke-width="2" d="M546,-324C546,-324 464,-324 464,-324 458,-324 452,-318 452,-312 452,-312 452,-300 452,-300 452,-294 458,-288 464,-288 464,-288 546,-288 546,-288 552,-288 558,-294 558,-300 558,-300 558,-312 558,-312 558,-318 552,-324 546,-324"/>
<text text-anchor="middle" x="505" y="-303.5" font-family="sans" font-size="10.00">makeRlpbwtNaive</text>
</g>
<!-- 15&#45;&gt;16 -->
<g id="edge30" class="edge">
<title>15&#45;&gt;16</title>
<path fill="none" stroke="grey" stroke-width="2" d="M954.86,-445.84C863.39,-439.4 670.78,-423.03 610,-396 576.7,-381.19 545.81,-352.44 526.28,-331.61"/>
<polygon fill="grey" stroke="grey" stroke-width="2" points="528.7,-329.08 519.37,-324.06 523.54,-333.8 528.7,-329.08"/>
</g>
<!-- 17 -->
<g id="node18" class="node">
<title>17</title>
<path fill="none" stroke="#56d0d8" stroke-width="2" d="M1083,-396C1083,-396 1005,-396 1005,-396 999,-396 993,-390 993,-384 993,-384 993,-372 993,-372 993,-366 999,-360 1005,-360 1005,-360 1083,-360 1083,-360 1089,-360 1095,-366 1095,-372 1095,-372 1095,-384 1095,-384 1095,-390 1089,-396 1083,-396"/>
<text text-anchor="middle" x="1044" y="-375.5" font-family="sans" font-size="10.00">makeInputRlpbwt</text>
</g>
<!-- 15&#45;&gt;17 -->
<g id="edge32" class="edge">
<title>15&#45;&gt;17</title>
<path fill="none" stroke="grey" stroke-width="2" d="M1013.89,-431.7C1018.49,-423.64 1024.06,-413.89 1029.15,-404.98"/>
<polygon fill="grey" stroke="grey" stroke-width="2" points="1032.3,-406.52 1034.23,-396.1 1026.23,-403.05 1032.3,-406.52"/>
</g>
<!-- 19 -->
<g id="node20" class="node">
<title>19</title>
<path fill="none" stroke="#56a2d8" stroke-width="2" d="M762,-252C762,-252 670,-252 670,-252 664,-252 658,-246 658,-240 658,-240 658,-228 658,-228 658,-222 664,-216 670,-216 670,-216 762,-216 762,-216 768,-216 774,-222 774,-228 774,-228 774,-240 774,-240 774,-246 768,-252 762,-252"/>
<text text-anchor="middle" x="716" y="-231.5" font-family="sans" font-size="10.00">runRlpbwtBitvectors</text>
</g>
<!-- 15&#45;&gt;19 -->
<g id="edge34" class="edge">
<title>15&#45;&gt;19</title>
<path fill="none" stroke="grey" stroke-width="2" d="M954.61,-441.57C907.45,-433.55 834.88,-418.77 775,-396 712.54,-372.25 677.11,-381.46 643,-324 634.83,-310.24 635.73,-302.25 643,-288 649.23,-275.77 659.76,-265.7 670.9,-257.75"/>
<polygon fill="grey" stroke="grey" stroke-width="2" points="673.07,-260.51 679.49,-252.08 669.21,-254.67 673.07,-260.51"/>
</g>
<!-- 20 -->
<g id="node21" class="node">
<title>20</title>
<path fill="none" stroke="#b6d856" stroke-width="2" d="M767.5,-324C767.5,-324 664.5,-324 664.5,-324 658.5,-324 652.5,-318 652.5,-312 652.5,-312 652.5,-300 652.5,-300 652.5,-294 658.5,-288 664.5,-288 664.5,-288 767.5,-288 767.5,-288 773.5,-288 779.5,-294 779.5,-300 779.5,-300 779.5,-312 779.5,-312 779.5,-318 773.5,-324 767.5,-324"/>
<text text-anchor="middle" x="716" y="-303.5" font-family="sans" font-size="10.00">makeRlpbwtBitvectors</text>
</g>
<!-- 15&#45;&gt;20 -->
<g id="edge37" class="edge">
<title>15&#45;&gt;20</title>
<path fill="none" stroke="grey" stroke-width="2" d="M954.76,-438.76C919.35,-430.24 871.15,-416.21 832,-396 798.05,-378.47 763.92,-350.79 741.56,-330.95"/>
<polygon fill="grey" stroke="grey" stroke-width="2" points="743.65,-328.12 733.88,-324.03 738.97,-333.32 743.65,-328.12"/>
</g>
<!-- 22 -->
<g id="node23" class="node">
<title>22</title>
<path fill="none" stroke="#80d856" stroke-width="2" d="M910.5,-252C910.5,-252 841.5,-252 841.5,-252 835.5,-252 829.5,-246 829.5,-240 829.5,-240 829.5,-228 829.5,-228 829.5,-222 835.5,-216 841.5,-216 841.5,-216 910.5,-216 910.5,-216 916.5,-216 922.5,-222 922.5,-228 922.5,-228 922.5,-240 922.5,-240 922.5,-246 916.5,-252 910.5,-252"/>
<text text-anchor="middle" x="876" y="-231.5" font-family="sans" font-size="10.00">runRlpbwtPanel</text>
</g>
<!-- 15&#45;&gt;22 -->
<g id="edge40" class="edge">
<title>15&#45;&gt;22</title>
<path fill="none" stroke="grey" stroke-width="2" d="M972.98,-431.95C939.18,-411.39 886.99,-373.36 865,-324 856.27,-304.41 860.12,-280.14 865.54,-261.89"/>
<polygon fill="grey" stroke="grey" stroke-width="2" points="868.93,-262.78 868.73,-252.19 862.28,-260.59 868.93,-262.78"/>
</g>
<!-- 23 -->
<g id="node24" class="node">
<title>23</title>
<path fill="none" stroke="#97d856" stroke-width="2" d="M966,-324C966,-324 886,-324 886,-324 880,-324 874,-318 874,-312 874,-312 874,-300 874,-300 874,-294 880,-288 886,-288 886,-288 966,-288 966,-288 972,-288 978,-294 978,-300 978,-300 978,-312 978,-312 978,-318 972,-324 966,-324"/>
<text text-anchor="middle" x="926" y="-303.5" font-family="sans" font-size="10.00">makeRlpbwtPanel</text>
</g>
<!-- 15&#45;&gt;23 -->
<g id="edge43" class="edge">
<title>15&#45;&gt;23</title>
<path fill="none" stroke="grey" stroke-width="2" d="M994.59,-431.87C981.12,-407.35 956.23,-362.03 940.42,-333.26"/>
<polygon fill="grey" stroke="grey" stroke-width="2" points="943.32,-331.27 935.44,-324.19 937.19,-334.64 943.32,-331.27"/>
</g>
<!-- 25 -->
<g id="node26" class="node">
<title>25</title>
<path fill="none" stroke="#56d85b" stroke-width="2" d="M474.5,-252C474.5,-252 389.5,-252 389.5,-252 383.5,-252 377.5,-246 377.5,-240 377.5,-240 377.5,-228 377.5,-228 377.5,-222 383.5,-216 389.5,-216 389.5,-216 474.5,-216 474.5,-216 480.5,-216 486.5,-222 486.5,-228 486.5,-228 486.5,-240 486.5,-240 486.5,-246 480.5,-252 474.5,-252"/>
<text text-anchor="middle" x="432" y="-231.5" font-family="sans" font-size="10.00">runRlpbwtPanelExt</text>
</g>
<!-- 15&#45;&gt;25 -->
<g id="edge46" class="edge">
<title>15&#45;&gt;25</title>
<path fill="none" stroke="grey" stroke-width="2" d="M954.9,-446.45C814.97,-438.97 420.7,-416.33 366,-396 304.96,-373.32 228.64,-340.62 267,-288 279.28,-271.16 326.61,-257.02 367.45,-247.59"/>
<polygon fill="grey" stroke="grey" stroke-width="2" points="368.41,-250.96 377.4,-245.36 366.87,-244.13 368.41,-250.96"/>
</g>
<!-- 26 -->
<g id="node27" class="node">
<title>26</title>
<path fill="none" stroke="#d86656" stroke-width="2" d="M384,-324C384,-324 288,-324 288,-324 282,-324 276,-318 276,-312 276,-312 276,-300 276,-300 276,-294 282,-288 288,-288 288,-288 384,-288 384,-288 390,-288 396,-294 396,-300 396,-300 396,-312 396,-312 396,-318 390,-324 384,-324"/>
<text text-anchor="middle" x="336" y="-303.5" font-family="sans" font-size="10.00">makeRlpbwtPanelExt</text>
</g>
<!-- 15&#45;&gt;26 -->
<g id="edge49" class="edge">
<title>15&#45;&gt;26</title>
<path fill="none" stroke="grey" stroke-width="2" d="M954.69,-446.77C820.88,-440.41 457.73,-421.04 410,-396 383.34,-382.01 362.54,-353.91 349.87,-333.01"/>
<polygon fill="grey" stroke="grey" stroke-width="2" points="352.84,-331.16 344.79,-324.27 346.79,-334.68 352.84,-331.16"/>
</g>
<!-- 28 -->
<g id="node29" class="node">
<title>28</title>
<path fill="none" stroke="#56d882" stroke-width="2" d="M1146,-252C1146,-252 1060,-252 1060,-252 1054,-252 1048,-246 1048,-240 1048,-240 1048,-228 1048,-228 1048,-222 1054,-216 1060,-216 1060,-216 1146,-216 1146,-216 1152,-216 1158,-222 1158,-228 1158,-228 1158,-240 1158,-240 1158,-246 1152,-252 1146,-252"/>
<text text-anchor="middle" x="1103" y="-231.5" font-family="sans" font-size="10.00">runRlpbwtSlpNoThr</text>
</g>
<!-- 15&#45;&gt;28 -->
<g id="edge52" class="edge">
<title>15&#45;&gt;28</title>
<path fill="none" stroke="grey" stroke-width="2" d="M1053.23,-439.94C1111.08,-426.26 1203.88,-394.09 1241,-324 1248.49,-309.86 1250.06,-301.19 1241,-288 1224.43,-263.89 1195.25,-250.74 1167.98,-243.57"/>
<polygon fill="grey" stroke="grey" stroke-width="2" points="1168.59,-240.12 1158.05,-241.19 1166.96,-246.93 1168.59,-240.12"/>
</g>
<!-- 29 -->
<g id="node30" class="node">
<title>29</title>
<path fill="none" stroke="#56d873" stroke-width="2" d="M1220,-324C1220,-324 1122,-324 1122,-324 1116,-324 1110,-318 1110,-312 1110,-312 1110,-300 1110,-300 1110,-294 1116,-288 1122,-288 1122,-288 1220,-288 1220,-288 1226,-288 1232,-294 1232,-300 1232,-300 1232,-312 1232,-312 1232,-318 1226,-324 1220,-324"/>
<text text-anchor="middle" x="1171" y="-303.5" font-family="sans" font-size="10.00">makeRlpbwtSlpNoThr</text>
</g>
<!-- 15&#45;&gt;29 -->
<g id="edge55" class="edge">
<title>15&#45;&gt;29</title>
<path fill="none" stroke="grey" stroke-width="2" d="M1045.95,-431.83C1064.89,-422.85 1086.81,-410.67 1104,-396 1125.21,-377.9 1143.78,-351.96 1155.96,-332.75"/>
<polygon fill="grey" stroke="grey" stroke-width="2" points="1158.97,-334.54 1161.25,-324.19 1153.01,-330.86 1158.97,-334.54"/>
</g>
<!-- 31 -->
<g id="node32" class="node">
<title>31</title>
<path fill="none" stroke="#d88d56" stroke-width="2" d="M1347,-252C1347,-252 1245,-252 1245,-252 1239,-252 1233,-246 1233,-240 1233,-240 1233,-228 1233,-228 1233,-222 1239,-216 1245,-216 1245,-216 1347,-216 1347,-216 1353,-216 1359,-222 1359,-228 1359,-228 1359,-240 1359,-240 1359,-246 1353,-252 1347,-252"/>
<text text-anchor="middle" x="1296" y="-231.5" font-family="sans" font-size="10.00">runRlpbwtSlpNoThrExt</text>
</g>
<!-- 15&#45;&gt;31 -->
<g id="edge58" class="edge">
<title>15&#45;&gt;31</title>
<path fill="none" stroke="grey" stroke-width="2" d="M1053.25,-447.15C1121.31,-443.32 1247.15,-431.61 1348,-396 1408.09,-374.78 1440.2,-379.23 1472,-324 1498.4,-278.14 1428.77,-255.21 1369.44,-244.24"/>
<polygon fill="grey" stroke="grey" stroke-width="2" points="1369.72,-240.74 1359.27,-242.46 1368.51,-247.64 1369.72,-240.74"/>
</g>
<!-- 32 -->
<g id="node33" class="node">
<title>32</title>
<path fill="none" stroke="#d87d56" stroke-width="2" d="M1451.5,-324C1451.5,-324 1338.5,-324 1338.5,-324 1332.5,-324 1326.5,-318 1326.5,-312 1326.5,-312 1326.5,-300 1326.5,-300 1326.5,-294 1332.5,-288 1338.5,-288 1338.5,-288 1451.5,-288 1451.5,-288 1457.5,-288 1463.5,-294 1463.5,-300 1463.5,-300 1463.5,-312 1463.5,-312 1463.5,-318 1457.5,-324 1451.5,-324"/>
<text text-anchor="middle" x="1395" y="-303.5" font-family="sans" font-size="10.00">makeRlpbwtSlpNoThrExt</text>
</g>
<!-- 15&#45;&gt;32 -->
<g id="edge61" class="edge">
<title>15&#45;&gt;32</title>
<path fill="none" stroke="grey" stroke-width="2" d="M1053.27,-444.38C1128.56,-436.68 1268.14,-419.7 1312,-396 1339.81,-380.97 1363.47,-353.11 1378.32,-332.55"/>
<polygon fill="grey" stroke="grey" stroke-width="2" points="1381.27,-334.44 1384.14,-324.24 1375.54,-330.43 1381.27,-334.44"/>
</g>
<!-- 34 -->
<g id="node35" class="node">
<title>34</title>
<path fill="none" stroke="#d8d356" stroke-width="2" d="M1567.5,-252C1567.5,-252 1494.5,-252 1494.5,-252 1488.5,-252 1482.5,-246 1482.5,-240 1482.5,-240 1482.5,-228 1482.5,-228 1482.5,-222 1488.5,-216 1494.5,-216 1494.5,-216 1567.5,-216 1567.5,-216 1573.5,-216 1579.5,-222 1579.5,-228 1579.5,-228 1579.5,-240 1579.5,-240 1579.5,-246 1573.5,-252 1567.5,-252"/>
<text text-anchor="middle" x="1531" y="-231.5" font-family="sans" font-size="10.00">runRlpbwtSlpThr</text>
</g>
<!-- 15&#45;&gt;34 -->
<g id="edge64" class="edge">
<title>15&#45;&gt;34</title>
<path fill="none" stroke="grey" stroke-width="2" d="M1053.09,-447.82C1173.68,-444.38 1481.62,-432.22 1577,-396 1637.59,-372.99 1712.08,-341.16 1675,-288 1655.83,-260.52 1620.74,-247.25 1589.99,-240.86"/>
<polygon fill="grey" stroke="grey" stroke-width="2" points="1590.24,-237.34 1579.76,-238.94 1588.95,-244.22 1590.24,-237.34"/>
</g>
<!-- 35 -->
<g id="node36" class="node">
<title>35</title>
<path fill="none" stroke="#566bd8" stroke-width="2" d="M1654,-324C1654,-324 1570,-324 1570,-324 1564,-324 1558,-318 1558,-312 1558,-312 1558,-300 1558,-300 1558,-294 1564,-288 1570,-288 1570,-288 1654,-288 1654,-288 1660,-288 1666,-294 1666,-300 1666,-300 1666,-312 1666,-312 1666,-318 1660,-324 1654,-324"/>
<text text-anchor="middle" x="1612" y="-303.5" font-family="sans" font-size="10.00">makeRlpbwtSlpThr</text>
</g>
<!-- 15&#45;&gt;35 -->
<g id="edge67" class="edge">
<title>15&#45;&gt;35</title>
<path fill="none" stroke="grey" stroke-width="2" d="M1053.11,-449.11C1169.86,-448.59 1460.47,-442.52 1544,-396 1569.34,-381.89 1588.24,-354.01 1599.59,-333.19"/>
<polygon fill="grey" stroke="grey" stroke-width="2" points="1602.76,-334.69 1604.28,-324.2 1596.55,-331.45 1602.76,-334.69"/>
</g>
<!-- 37 -->
<g id="node38" class="node">
<title>37</title>
<path fill="none" stroke="#56b1d8" stroke-width="2" d="M1802.5,-252C1802.5,-252 1713.5,-252 1713.5,-252 1707.5,-252 1701.5,-246 1701.5,-240 1701.5,-240 1701.5,-228 1701.5,-228 1701.5,-222 1707.5,-216 1713.5,-216 1713.5,-216 1802.5,-216 1802.5,-216 1808.5,-216 1814.5,-222 1814.5,-228 1814.5,-228 1814.5,-240 1814.5,-240 1814.5,-246 1808.5,-252 1802.5,-252"/>
<text text-anchor="middle" x="1758" y="-231.5" font-family="sans" font-size="10.00">runRlpbwtSlpThrExt</text>
</g>
<!-- 15&#45;&gt;37 -->
<g id="edge70" class="edge">
<title>15&#45;&gt;37</title>
<path fill="none" stroke="grey" stroke-width="2" d="M1053.17,-448.83C1201.89,-447.82 1645.02,-441.02 1781,-396 1846.65,-374.27 1931.95,-345.14 1893,-288 1877.41,-265.12 1850.3,-252.12 1824.45,-244.73"/>
<polygon fill="grey" stroke="grey" stroke-width="2" points="1825.2,-241.31 1814.64,-242.17 1823.43,-248.08 1825.2,-241.31"/>
</g>
<!-- 38 -->
<g id="node39" class="node">
<title>38</title>
<path fill="none" stroke="#56d8c9" stroke-width="2" d="M1872,-324C1872,-324 1772,-324 1772,-324 1766,-324 1760,-318 1760,-312 1760,-312 1760,-300 1760,-300 1760,-294 1766,-288 1772,-288 1772,-288 1872,-288 1872,-288 1878,-288 1884,-294 1884,-300 1884,-300 1884,-312 1884,-312 1884,-318 1878,-324 1872,-324"/>
<text text-anchor="middle" x="1822" y="-303.5" font-family="sans" font-size="10.00">makeRlpbwtSlpThrExt</text>
</g>
<!-- 15&#45;&gt;38 -->
<g id="edge73" class="edge">
<title>15&#45;&gt;38</title>
<path fill="none" stroke="grey" stroke-width="2" d="M1053.2,-447.68C1208.93,-443.2 1684.43,-427.09 1746,-396 1773.33,-382.2 1794.82,-353.8 1807.88,-332.78"/>
<polygon fill="grey" stroke="grey" stroke-width="2" points="1810.99,-334.38 1813.11,-324 1804.98,-330.8 1810.99,-334.38"/>
</g>
<!-- 16&#45;&gt;14 -->
<g id="edge27" class="edge">
<title>16&#45;&gt;14</title>
<path fill="none" stroke="grey" stroke-width="2" d="M521.31,-287.7C529.31,-279.22 539.07,-268.86 547.82,-259.58"/>
<polygon fill="grey" stroke="grey" stroke-width="2" points="550.56,-261.78 554.87,-252.1 545.47,-256.98 550.56,-261.78"/>
</g>
<!-- 17&#45;&gt;14 -->
<g id="edge28" class="edge">
<title>17&#45;&gt;14</title>
<path fill="none" stroke="grey" stroke-width="2" d="M992.79,-364.03C956.63,-354.33 907.27,-340.04 865,-324 829.68,-310.6 823.63,-300.54 788,-288 758.99,-277.79 682.61,-259.88 628.71,-247.74"/>
<polygon fill="grey" stroke="grey" stroke-width="2" points="629.45,-244.32 618.92,-245.54 627.91,-251.15 629.45,-244.32"/>
</g>
<!-- 17&#45;&gt;16 -->
<g id="edge31" class="edge">
<title>17&#45;&gt;16</title>
<path fill="none" stroke="grey" stroke-width="2" d="M992.68,-373.55C905.63,-367.17 723.7,-351.63 572,-324 570.74,-323.77 569.46,-323.53 568.18,-323.28"/>
<polygon fill="grey" stroke="grey" stroke-width="2" points="568.75,-319.82 558.25,-321.21 567.32,-326.68 568.75,-319.82"/>
</g>
<!-- 17&#45;&gt;19 -->
<g id="edge36" class="edge">
<title>17&#45;&gt;19</title>
<path fill="none" stroke="grey" stroke-width="2" d="M1037.9,-359.92C1029.66,-339.43 1012.95,-305.64 987,-288 978.57,-282.27 861.68,-260.75 784.2,-246.96"/>
<polygon fill="grey" stroke="grey" stroke-width="2" points="784.47,-243.45 774.01,-245.15 783.25,-250.34 784.47,-243.45"/>
</g>
<!-- 17&#45;&gt;20 -->
<g id="edge38" class="edge">
<title>17&#45;&gt;20</title>
<path fill="none" stroke="grey" stroke-width="2" d="M992.75,-366.22C942.2,-355.57 862.75,-338.78 794,-324 792.56,-323.69 791.11,-323.38 789.64,-323.06"/>
<polygon fill="grey" stroke="grey" stroke-width="2" points="790.36,-319.64 779.84,-320.95 788.88,-326.48 790.36,-319.64"/>
</g>
<!-- 17&#45;&gt;22 -->
<g id="edge42" class="edge">
<title>17&#45;&gt;22</title>
<path fill="none" stroke="grey" stroke-width="2" d="M1043.87,-359.71C1042.81,-339.97 1038.14,-307.84 1020,-288 997.47,-263.36 962.48,-250.14 932.64,-243.07"/>
<polygon fill="grey" stroke="grey" stroke-width="2" points="933.26,-239.62 922.74,-240.9 931.76,-246.46 933.26,-239.62"/>
</g>
<!-- 17&#45;&gt;23 -->
<g id="edge44" class="edge">
<title>17&#45;&gt;23</title>
<path fill="none" stroke="grey" stroke-width="2" d="M1015.13,-359.88C999.71,-350.72 980.52,-339.34 963.9,-329.48"/>
<polygon fill="grey" stroke="grey" stroke-width="2" points="965.36,-326.28 954.98,-324.19 961.79,-332.3 965.36,-326.28"/>
</g>
<!-- 17&#45;&gt;25 -->
<g id="edge48" class="edge">
<title>17&#45;&gt;25</title>
<path fill="none" stroke="grey" stroke-width="2" d="M992.94,-375.31C915.72,-371.63 765.25,-360.07 643,-324 607.15,-313.42 601.3,-302.84 567,-288 540.99,-276.75 511.75,-265.15 487.16,-255.67"/>
<polygon fill="grey" stroke="grey" stroke-width="2" points="488.21,-252.33 477.62,-252.02 485.71,-258.87 488.21,-252.33"/>
</g>
<!-- 17&#45;&gt;26 -->
<g id="edge50" class="edge">
<title>17&#45;&gt;26</title>
<path fill="none" stroke="grey" stroke-width="2" d="M992.82,-373.69C888.94,-366.72 645.98,-349.04 443,-324 431.11,-322.53 418.52,-320.74 406.31,-318.89"/>
<polygon fill="grey" stroke="grey" stroke-width="2" points="406.58,-315.39 396.16,-317.31 405.51,-322.3 406.58,-315.39"/>
</g>
<!-- 17&#45;&gt;28 -->
<g id="edge54" class="edge">
<title>17&#45;&gt;28</title>
<path fill="none" stroke="grey" stroke-width="2" d="M1051.12,-359.87C1061.26,-335.46 1079.97,-290.43 1091.93,-261.64"/>
<polygon fill="grey" stroke="grey" stroke-width="2" points="1095.25,-262.77 1095.86,-252.19 1088.79,-260.08 1095.25,-262.77"/>
</g>
<!-- 17&#45;&gt;29 -->
<g id="edge56" class="edge">
<title>17&#45;&gt;29</title>
<path fill="none" stroke="grey" stroke-width="2" d="M1075.07,-359.88C1091.83,-350.64 1112.71,-339.13 1130.7,-329.21"/>
<polygon fill="grey" stroke="grey" stroke-width="2" points="1132.74,-332.08 1139.81,-324.19 1129.37,-325.95 1132.74,-332.08"/>
</g>
<!-- 17&#45;&gt;31 -->
<g id="edge60" class="edge">
<title>17&#45;&gt;31</title>
<path fill="none" stroke="grey" stroke-width="2" d="M1095.01,-373.63C1137.68,-368.56 1198.25,-355.83 1241,-324 1262.28,-308.15 1277.19,-281.41 1286.06,-261.36"/>
<polygon fill="grey" stroke="grey" stroke-width="2" points="1289.29,-262.72 1289.93,-252.14 1282.84,-260.01 1289.29,-262.72"/>
</g>
<!-- 17&#45;&gt;32 -->
<g id="edge62" class="edge">
<title>17&#45;&gt;32</title>
<path fill="none" stroke="grey" stroke-width="2" d="M1095.04,-366.82C1153.09,-355.24 1248.58,-336.2 1316.21,-322.71"/>
<polygon fill="grey" stroke="grey" stroke-width="2" points="1317.27,-326.07 1326.39,-320.68 1315.9,-319.21 1317.27,-326.07"/>
</g>
<!-- 17&#45;&gt;34 -->
<g id="edge66" class="edge">
<title>17&#45;&gt;34</title>
<path fill="none" stroke="grey" stroke-width="2" d="M1095.13,-375.94C1194.64,-373.04 1410.01,-362.37 1472,-324 1495.4,-309.51 1511.51,-281.89 1520.91,-261.24"/>
<polygon fill="grey" stroke="grey" stroke-width="2" points="1524.13,-262.61 1524.87,-252.04 1517.7,-259.84 1524.13,-262.61"/>
</g>
<!-- 17&#45;&gt;35 -->
<g id="edge68" class="edge">
<title>17&#45;&gt;35</title>
<path fill="none" stroke="grey" stroke-width="2" d="M1095.03,-371.9C1180.28,-363.21 1357.03,-344.48 1506,-324 1519.6,-322.13 1534.14,-319.93 1547.96,-317.74"/>
<polygon fill="grey" stroke="grey" stroke-width="2" points="1548.55,-321.19 1557.87,-316.16 1547.45,-314.28 1548.55,-321.19"/>
</g>
<!-- 17&#45;&gt;37 -->
<g id="edge72" class="edge">
<title>17&#45;&gt;37</title>
<path fill="none" stroke="grey" stroke-width="2" d="M1095.15,-377.38C1226.62,-377.64 1573.14,-373.46 1675,-324 1703.6,-310.11 1727.26,-281.79 1741.9,-260.81"/>
<polygon fill="grey" stroke="grey" stroke-width="2" points="1744.93,-262.58 1747.61,-252.33 1739.13,-258.67 1744.93,-262.58"/>
</g>
<!-- 17&#45;&gt;38 -->
<g id="edge74" class="edge">
<title>17&#45;&gt;38</title>
<path fill="none" stroke="grey" stroke-width="2" d="M1095.35,-374.1C1207.02,-367.54 1480.22,-350.04 1708,-324 1721.6,-322.45 1736.07,-320.51 1749.97,-318.5"/>
<polygon fill="grey" stroke="grey" stroke-width="2" points="1750.59,-321.95 1759.98,-317.04 1749.58,-315.02 1750.59,-321.95"/>
</g>
<!-- 18 -->
<g id="node19" class="node">
<title>18</title>
<path fill="none" stroke="#d85656" stroke-width="2" d="M760.5,-180C760.5,-180 671.5,-180 671.5,-180 665.5,-180 659.5,-174 659.5,-168 659.5,-168 659.5,-156 659.5,-156 659.5,-150 665.5,-144 671.5,-144 671.5,-144 760.5,-144 760.5,-144 766.5,-144 772.5,-150 772.5,-156 772.5,-156 772.5,-168 772.5,-168 772.5,-174 766.5,-180 760.5,-180"/>
<text text-anchor="middle" x="716" y="-165" font-family="sans" font-size="10.00">extractVerbose</text>
<text text-anchor="middle" x="716" y="-154" font-family="sans" font-size="10.00">file: rlpbwtBitvector</text>
</g>
<!-- 18&#45;&gt;1 -->
<g id="edge6" class="edge">
<title>18&#45;&gt;1</title>
<path fill="none" stroke="grey" stroke-width="2" d="M716,-143.7C716,-135.98 716,-126.71 716,-118.11"/>
<polygon fill="grey" stroke="grey" stroke-width="2" points="719.5,-118.1 716,-108.1 712.5,-118.1 719.5,-118.1"/>
</g>
<!-- 19&#45;&gt;18 -->
<g id="edge33" class="edge">
<title>19&#45;&gt;18</title>
<path fill="none" stroke="grey" stroke-width="2" d="M716,-215.7C716,-207.98 716,-198.71 716,-190.11"/>
<polygon fill="grey" stroke="grey" stroke-width="2" points="719.5,-190.1 716,-180.1 712.5,-190.1 719.5,-190.1"/>
</g>
<!-- 20&#45;&gt;19 -->
<g id="edge35" class="edge">
<title>20&#45;&gt;19</title>
<path fill="none" stroke="grey" stroke-width="2" d="M716,-287.7C716,-279.98 716,-270.71 716,-262.11"/>
<polygon fill="grey" stroke="grey" stroke-width="2" points="719.5,-262.1 716,-252.1 712.5,-262.1 719.5,-262.1"/>
</g>
<!-- 21 -->
<g id="node22" class="node">
<title>21</title>
<path fill="none" stroke="#d85656" stroke-width="2" d="M909,-180C909,-180 837,-180 837,-180 831,-180 825,-174 825,-168 825,-168 825,-156 825,-156 825,-150 831,-144 837,-144 837,-144 909,-144 909,-144 915,-144 921,-150 921,-156 921,-156 921,-168 921,-168 921,-174 915,-180 909,-180"/>
<text text-anchor="middle" x="873" y="-165" font-family="sans" font-size="10.00">extractVerbose</text>
<text text-anchor="middle" x="873" y="-154" font-family="sans" font-size="10.00">file: rlpbwtPanel</text>
</g>
<!-- 21&#45;&gt;1 -->
<g id="edge7" class="edge">
<title>21&#45;&gt;1</title>
<path fill="none" stroke="grey" stroke-width="2" d="M834.59,-143.88C813.05,-134.27 786,-122.21 763.18,-112.03"/>
<polygon fill="grey" stroke="grey" stroke-width="2" points="764.57,-108.82 754.01,-107.95 761.72,-115.22 764.57,-108.82"/>
</g>
<!-- 22&#45;&gt;21 -->
<g id="edge39" class="edge">
<title>22&#45;&gt;21</title>
<path fill="none" stroke="grey" stroke-width="2" d="M875.26,-215.7C874.93,-207.98 874.53,-198.71 874.16,-190.11"/>
<polygon fill="grey" stroke="grey" stroke-width="2" points="877.66,-189.95 873.73,-180.1 870.66,-190.25 877.66,-189.95"/>
</g>
<!-- 23&#45;&gt;22 -->
<g id="edge41" class="edge">
<title>23&#45;&gt;22</title>
<path fill="none" stroke="grey" stroke-width="2" d="M913.64,-287.7C907.77,-279.47 900.63,-269.48 894.16,-260.42"/>
<polygon fill="grey" stroke="grey" stroke-width="2" points="896.88,-258.21 888.22,-252.1 891.18,-262.28 896.88,-258.21"/>
</g>
<!-- 24 -->
<g id="node25" class="node">
<title>24</title>
<path fill="none" stroke="#d85656" stroke-width="2" d="M508,-180C508,-180 420,-180 420,-180 414,-180 408,-174 408,-168 408,-168 408,-156 408,-156 408,-150 414,-144 420,-144 420,-144 508,-144 508,-144 514,-144 520,-150 520,-156 520,-156 520,-168 520,-168 520,-174 514,-180 508,-180"/>
<text text-anchor="middle" x="464" y="-165" font-family="sans" font-size="10.00">extractVerbose</text>
<text text-anchor="middle" x="464" y="-154" font-family="sans" font-size="10.00">file: rlpbwtPanelExt</text>
</g>
<!-- 24&#45;&gt;1 -->
<g id="edge8" class="edge">
<title>24&#45;&gt;1</title>
<path fill="none" stroke="grey" stroke-width="2" d="M520.24,-145.38C564.69,-133.03 626.06,-115.98 668.17,-104.29"/>
<polygon fill="grey" stroke="grey" stroke-width="2" points="669.21,-107.63 677.9,-101.58 667.33,-100.89 669.21,-107.63"/>
</g>
<!-- 25&#45;&gt;24 -->
<g id="edge45" class="edge">
<title>25&#45;&gt;24</title>
<path fill="none" stroke="grey" stroke-width="2" d="M439.91,-215.7C443.55,-207.73 447.95,-198.1 451.99,-189.26"/>
<polygon fill="grey" stroke="grey" stroke-width="2" points="455.21,-190.65 456.18,-180.1 448.84,-187.74 455.21,-190.65"/>
</g>
<!-- 26&#45;&gt;25 -->
<g id="edge47" class="edge">
<title>26&#45;&gt;25</title>
<path fill="none" stroke="grey" stroke-width="2" d="M359.73,-287.7C371.94,-278.8 386.99,-267.82 400.18,-258.2"/>
<polygon fill="grey" stroke="grey" stroke-width="2" points="402.52,-260.82 408.54,-252.1 398.4,-255.17 402.52,-260.82"/>
</g>
<!-- 27 -->
<g id="node28" class="node">
<title>27</title>
<path fill="none" stroke="#d85656" stroke-width="2" d="M1091.5,-180C1091.5,-180 1002.5,-180 1002.5,-180 996.5,-180 990.5,-174 990.5,-168 990.5,-168 990.5,-156 990.5,-156 990.5,-150 996.5,-144 1002.5,-144 1002.5,-144 1091.5,-144 1091.5,-144 1097.5,-144 1103.5,-150 1103.5,-156 1103.5,-156 1103.5,-168 1103.5,-168 1103.5,-174 1097.5,-180 1091.5,-180"/>
<text text-anchor="middle" x="1047" y="-165" font-family="sans" font-size="10.00">extractVerbose</text>
<text text-anchor="middle" x="1047" y="-154" font-family="sans" font-size="10.00">file: rlpbwtSlpNoThr</text>
</g>
<!-- 27&#45;&gt;1 -->
<g id="edge9" class="edge">
<title>27&#45;&gt;1</title>
<path fill="none" stroke="grey" stroke-width="2" d="M990.48,-149.05C926.77,-135.57 824.27,-113.9 764.2,-101.19"/>
<polygon fill="grey" stroke="grey" stroke-width="2" points="764.73,-97.73 754.22,-99.08 763.28,-104.58 764.73,-97.73"/>
</g>
<!-- 28&#45;&gt;27 -->
<g id="edge51" class="edge">
<title>28&#45;&gt;27</title>
<path fill="none" stroke="grey" stroke-width="2" d="M1089.16,-215.7C1082.51,-207.39 1074.42,-197.28 1067.11,-188.14"/>
<polygon fill="grey" stroke="grey" stroke-width="2" points="1069.66,-185.73 1060.68,-180.1 1064.2,-190.1 1069.66,-185.73"/>
</g>
<!-- 29&#45;&gt;28 -->
<g id="edge53" class="edge">
<title>29&#45;&gt;28</title>
<path fill="none" stroke="grey" stroke-width="2" d="M1154.19,-287.7C1145.87,-279.14 1135.69,-268.66 1126.61,-259.3"/>
<polygon fill="grey" stroke="grey" stroke-width="2" points="1129.09,-256.84 1119.62,-252.1 1124.07,-261.72 1129.09,-256.84"/>
</g>
<!-- 30 -->
<g id="node31" class="node">
<title>30</title>
<path fill="none" stroke="#d85656" stroke-width="2" d="M1301.5,-180C1301.5,-180 1196.5,-180 1196.5,-180 1190.5,-180 1184.5,-174 1184.5,-168 1184.5,-168 1184.5,-156 1184.5,-156 1184.5,-150 1190.5,-144 1196.5,-144 1196.5,-144 1301.5,-144 1301.5,-144 1307.5,-144 1313.5,-150 1313.5,-156 1313.5,-156 1313.5,-168 1313.5,-168 1313.5,-174 1307.5,-180 1301.5,-180"/>
<text text-anchor="middle" x="1249" y="-165" font-family="sans" font-size="10.00">extractVerbose</text>
<text text-anchor="middle" x="1249" y="-154" font-family="sans" font-size="10.00">file: rlpbwtSlpNoThrExt</text>
</g>
<!-- 30&#45;&gt;1 -->
<g id="edge10" class="edge">
<title>30&#45;&gt;1</title>
<path fill="none" stroke="grey" stroke-width="2" d="M1184.44,-152.52C1076.14,-138.3 860.29,-109.95 764.14,-97.32"/>
<polygon fill="grey" stroke="grey" stroke-width="2" points="764.49,-93.84 754.12,-96.01 763.58,-100.78 764.49,-93.84"/>
</g>
<!-- 31&#45;&gt;30 -->
<g id="edge57" class="edge">
<title>31&#45;&gt;30</title>
<path fill="none" stroke="grey" stroke-width="2" d="M1284.38,-215.7C1278.86,-207.47 1272.15,-197.48 1266.07,-188.42"/>
<polygon fill="grey" stroke="grey" stroke-width="2" points="1268.96,-186.46 1260.48,-180.1 1263.15,-190.36 1268.96,-186.46"/>
</g>
<!-- 32&#45;&gt;31 -->
<g id="edge59" class="edge">
<title>32&#45;&gt;31</title>
<path fill="none" stroke="grey" stroke-width="2" d="M1370.78,-287.88C1358.08,-278.89 1342.34,-267.76 1328.58,-258.03"/>
<polygon fill="grey" stroke="grey" stroke-width="2" points="1330.5,-255.11 1320.31,-252.19 1326.46,-260.82 1330.5,-255.11"/>
</g>
<!-- 33 -->
<g id="node34" class="node">
<title>33</title>
<path fill="none" stroke="#d85656" stroke-width="2" d="M1496,-180C1496,-180 1420,-180 1420,-180 1414,-180 1408,-174 1408,-168 1408,-168 1408,-156 1408,-156 1408,-150 1414,-144 1420,-144 1420,-144 1496,-144 1496,-144 1502,-144 1508,-150 1508,-156 1508,-156 1508,-168 1508,-168 1508,-174 1502,-180 1496,-180"/>
<text text-anchor="middle" x="1458" y="-165" font-family="sans" font-size="10.00">extractVerbose</text>
<text text-anchor="middle" x="1458" y="-154" font-family="sans" font-size="10.00">file: rlpbwtSlpThr</text>
</g>
<!-- 33&#45;&gt;1 -->
<g id="edge11" class="edge">
<title>33&#45;&gt;1</title>
<path fill="none" stroke="grey" stroke-width="2" d="M1407.99,-154.3C1382.32,-150.97 1350.51,-147.03 1322,-144 1114.87,-122 867.21,-102.44 764.41,-94.62"/>
<polygon fill="grey" stroke="grey" stroke-width="2" points="764.57,-91.12 754.33,-93.86 764.04,-98.1 764.57,-91.12"/>
</g>
<!-- 34&#45;&gt;33 -->
<g id="edge63" class="edge">
<title>34&#45;&gt;33</title>
<path fill="none" stroke="grey" stroke-width="2" d="M1512.96,-215.7C1503.94,-207.05 1492.88,-196.45 1483.06,-187.03"/>
<polygon fill="grey" stroke="grey" stroke-width="2" points="1485.48,-184.5 1475.84,-180.1 1480.63,-189.55 1485.48,-184.5"/>
</g>
<!-- 35&#45;&gt;34 -->
<g id="edge65" class="edge">
<title>35&#45;&gt;34</title>
<path fill="none" stroke="grey" stroke-width="2" d="M1591.98,-287.7C1581.87,-278.97 1569.46,-268.24 1558.48,-258.75"/>
<polygon fill="grey" stroke="grey" stroke-width="2" points="1560.65,-255.99 1550.79,-252.1 1556.07,-261.29 1560.65,-255.99"/>
</g>
<!-- 36 -->
<g id="node37" class="node">
<title>36</title>
<path fill="none" stroke="#d85656" stroke-width="2" d="M1717,-180C1717,-180 1625,-180 1625,-180 1619,-180 1613,-174 1613,-168 1613,-168 1613,-156 1613,-156 1613,-150 1619,-144 1625,-144 1625,-144 1717,-144 1717,-144 1723,-144 1729,-150 1729,-156 1729,-156 1729,-168 1729,-168 1729,-174 1723,-180 1717,-180"/>
<text text-anchor="middle" x="1671" y="-165" font-family="sans" font-size="10.00">extractVerbose</text>
<text text-anchor="middle" x="1671" y="-154" font-family="sans" font-size="10.00">file: rlpbwtSlpThrExt</text>
</g>
<!-- 36&#45;&gt;1 -->
<g id="edge12" class="edge">
<title>36&#45;&gt;1</title>
<path fill="none" stroke="grey" stroke-width="2" d="M1612.92,-153.98C1584.11,-150.65 1548.75,-146.8 1517,-144 1232.08,-118.86 889.19,-99.97 764.4,-93.46"/>
<polygon fill="grey" stroke="grey" stroke-width="2" points="764.56,-89.96 754.4,-92.94 764.2,-96.96 764.56,-89.96"/>
</g>
<!-- 37&#45;&gt;36 -->
<g id="edge69" class="edge">
<title>37&#45;&gt;36</title>
<path fill="none" stroke="grey" stroke-width="2" d="M1736.49,-215.7C1725.54,-206.88 1712.05,-196.03 1700.18,-186.47"/>
<polygon fill="grey" stroke="grey" stroke-width="2" points="1702.24,-183.65 1692.26,-180.1 1697.86,-189.1 1702.24,-183.65"/>
</g>
<!-- 38&#45;&gt;37 -->
<g id="edge71" class="edge">
<title>38&#45;&gt;37</title>
<path fill="none" stroke="grey" stroke-width="2" d="M1806.18,-287.7C1798.43,-279.22 1788.96,-268.86 1780.48,-259.58"/>
<polygon fill="grey" stroke="grey" stroke-width="2" points="1782.97,-257.12 1773.64,-252.1 1777.8,-261.85 1782.97,-257.12"/>
</g>
</g>
</svg>
